<?xml version="1.0" encoding="UTF-8" standalone="no"?>
<!DOCTYPE svg PUBLIC "-//W3C//DTD SVG 1.1//EN"
 "http://www.w3.org/Graphics/SVG/1.1/DTD/svg11.dtd">
<!-- Generated by graphviz version 13.1.1 (20250719.2154)
 -->
<!-- Title: true_cpdag Pages: 1 -->
<svg width="102pt" height="165pt"
 viewBox="0.00 0.00 102.00 165.00" xmlns="http://www.w3.org/2000/svg" xmlns:xlink="http://www.w3.org/1999/xlink">
<g id="graph0" class="graph" transform="scale(1 1) rotate(0) translate(4 160.85)">
<title>true_cpdag</title>
<polygon fill="white" stroke="none" points="-4,4 -4,-160.85 98,-160.85 98,4 -4,4"/>
<!-- A -->
<g id="node1" class="node">
<title>A</title>
<ellipse fill="#f8f8f8" stroke="#888888" stroke-width="0.8" cx="47" cy="-142.71" rx="18" ry="14.14"/>
<text xml:space="preserve" text-anchor="middle" x="47" y="-138.26" font-family="Helvetica,sans-Serif" font-size="11.00" fill="#222222">A</text>
</g>
<!-- B -->
<g id="node2" class="node">
<title>B</title>
<ellipse fill="#f8f8f8" stroke="#888888" stroke-width="0.8" cx="18" cy="-78.43" rx="18" ry="14.14"/>
<text xml:space="preserve" text-anchor="middle" x="18" y="-73.98" font-family="Helvetica,sans-Serif" font-size="11.00" fill="#222222">B</text>
</g>
<!-- A&#45;&gt;B -->
<g id="edge1" class="edge">
<title>A&#45;&gt;B</title>
<path fill="none" stroke="#555555" stroke-width="0.9" d="M41.13,-129.11C36.1,-118.3 28.89,-102.81 23.86,-92.01"/>
</g>
<!-- C -->
<g id="node3" class="node">
<title>C</title>
<ellipse fill="#f8f8f8" stroke="#888888" stroke-width="0.8" cx="76" cy="-78.43" rx="18" ry="14.14"/>
<text xml:space="preserve" text-anchor="middle" x="76" y="-73.98" font-family="Helvetica,sans-Serif" font-size="11.00" fill="#222222">C</text>
</g>
<!-- A&#45;&gt;C -->
<g id="edge2" class="edge">
<title>A&#45;&gt;C</title>
<path fill="none" stroke="#555555" stroke-width="0.9" d="M52.87,-129.11C57.9,-118.3 65.11,-102.81 70.14,-92.01"/>
</g>
<!-- D -->
<g id="node4" class="node">
<title>D</title>
<ellipse fill="#f8f8f8" stroke="#888888" stroke-width="0.8" cx="47" cy="-14.14" rx="18" ry="14.14"/>
<text xml:space="preserve" text-anchor="middle" x="47" y="-9.69" font-family="Helvetica,sans-Serif" font-size="11.00" fill="#222222">D</text>
</g>
<!-- B&#45;&gt;D -->
<g id="edge3" class="edge">
<title>B&#45;&gt;D</title>
<path fill="none" stroke="#f08080" stroke-width="0.9" d="M23.87,-64.82C27.84,-56.3 33.17,-44.85 37.71,-35.1"/>
<polygon fill="#f08080" stroke="#f08080" stroke-width="0.9" points="39.83,-36.34 40.57,-28.96 35.39,-34.27 39.83,-36.34"/>
</g>
<!-- C&#45;&gt;D -->
<g id="edge4" class="edge">
<title>C&#45;&gt;D</title>
<path fill="none" stroke="#f08080" stroke-width="0.9" d="M70.13,-64.82C66.16,-56.3 60.83,-44.85 56.29,-35.1"/>
<polygon fill="#f08080" stroke="#f08080" stroke-width="0.9" points="58.61,-34.27 53.43,-28.96 54.17,-36.34 58.61,-34.27"/>
</g>
</g>
</svg>
