<?xml version="1.0" encoding="UTF-8" standalone="no"?>
<!DOCTYPE svg PUBLIC "-//W3C//DTD SVG 1.1//EN"
 "http://www.w3.org/Graphics/SVG/1.1/DTD/svg11.dtd">
<!-- Generated by graphviz version 13.1.1 (20250719.2154)
 -->
<!-- Title: recovered Pages: 1 -->
<svg width="102pt" height="101pt"
 viewBox="0.00 0.00 102.00 101.00" xmlns="http://www.w3.org/2000/svg" xmlns:xlink="http://www.w3.org/1999/xlink">
<g id="graph0" class="graph" transform="scale(1 1) rotate(0) translate(4 96.57)">
<title>recovered</title>
<polygon fill="white" stroke="none" points="-4,4 -4,-96.57 98,-96.57 98,4 -4,4"/>
<!-- A -->
<g id="node1" class="node">
<title>A</title>
<ellipse fill="#f8f8f8" stroke="#888888" stroke-width="0.8" cx="18" cy="-14.14" rx="18" ry="14.14"/>
<text xml:space="preserve" text-anchor="middle" x="18" y="-9.69" font-family="Helvetica,sans-Serif" font-size="11.00" fill="#222222">A</text>
</g>
<!-- B -->
<g id="node2" class="node">
<title>B</title>
<ellipse fill="#f8f8f8" stroke="#888888" stroke-width="0.8" cx="18" cy="-78.43" rx="18" ry="14.14"/>
<text xml:space="preserve" text-anchor="middle" x="18" y="-73.98" font-family="Helvetica,sans-Serif" font-size="11.00" fill="#222222">B</text>
</g>
<!-- B&#45;&gt;A -->
<g id="edge1" class="edge">
<title>B&#45;&gt;A</title>
<path fill="none" stroke="#555555" stroke-width="0.9" d="M18,-63.91C18,-55.99 18,-45.81 18,-36.8"/>
<polygon fill="#555555" stroke="#555555" stroke-width="0.9" points="20.45,-36.99 18,-29.99 15.55,-36.99 20.45,-36.99"/>
</g>
<!-- D -->
<g id="node4" class="node">
<title>D</title>
<ellipse fill="#f8f8f8" stroke="#888888" stroke-width="0.8" cx="76" cy="-14.14" rx="18" ry="14.14"/>
<text xml:space="preserve" text-anchor="middle" x="76" y="-9.69" font-family="Helvetica,sans-Serif" font-size="11.00" fill="#222222">D</text>
</g>
<!-- B&#45;&gt;D -->
<g id="edge3" class="edge">
<title>B&#45;&gt;D</title>
<path fill="none" stroke="#f08080" stroke-width="0.9" d="M28.1,-66.58C37,-57.02 50.11,-42.95 60.36,-31.94"/>
<polygon fill="#f08080" stroke="#f08080" stroke-width="0.9" points="62.11,-33.66 65.08,-26.86 58.52,-30.32 62.11,-33.66"/>
</g>
<!-- C -->
<g id="node3" class="node">
<title>C</title>
<ellipse fill="#f8f8f8" stroke="#888888" stroke-width="0.8" cx="76" cy="-78.43" rx="18" ry="14.14"/>
<text xml:space="preserve" text-anchor="middle" x="76" y="-73.98" font-family="Helvetica,sans-Serif" font-size="11.00" fill="#222222">C</text>
</g>
<!-- C&#45;&gt;A -->
<g id="edge2" class="edge">
<title>C&#45;&gt;A</title>
<path fill="none" stroke="#555555" stroke-width="0.9" d="M65.9,-66.58C57,-57.02 43.89,-42.95 33.64,-31.94"/>
<polygon fill="#555555" stroke="#555555" stroke-width="0.9" points="35.48,-30.32 28.92,-26.86 31.89,-33.66 35.48,-30.32"/>
</g>
<!-- C&#45;&gt;D -->
<g id="edge4" class="edge">
<title>C&#45;&gt;D</title>
<path fill="none" stroke="#f08080" stroke-width="0.9" d="M76,-63.91C76,-55.99 76,-45.81 76,-36.8"/>
<polygon fill="#f08080" stroke="#f08080" stroke-width="0.9" points="78.45,-36.99 76,-29.99 73.55,-36.99 78.45,-36.99"/>
</g>
</g>
</svg>
