<?xml version="1.0" encoding="UTF-8" standalone="no"?>
<!DOCTYPE svg PUBLIC "-//W3C//DTD SVG 1.1//EN"
 "http://www.w3.org/Graphics/SVG/1.1/DTD/svg11.dtd">
<!-- Generated by graphviz version 13.1.1 (20250719.2154)
 -->
<!-- Title: true_MB(C) Pages: 1 -->
<svg width="260pt" height="86pt"
 viewBox="0.00 0.00 260.00 86.00" xmlns="http://www.w3.org/2000/svg" xmlns:xlink="http://www.w3.org/1999/xlink">
<g id="graph0" class="graph" transform="scale(1 1) rotate(0) translate(4 82.28)">
<title>true_MB(C)</title>
<polygon fill="white" stroke="none" points="-4,4 -4,-82.28 256,-82.28 256,4 -4,4"/>
<!-- A -->
<g id="node1" class="node">
<title>A</title>
<ellipse fill="#f8f8f8" stroke="#888888" stroke-width="0.8" cx="18" cy="-64.14" rx="18" ry="14.14"/>
<text xml:space="preserve" text-anchor="middle" x="18" y="-59.69" font-family="Helvetica,sans-Serif" font-size="11.00" fill="#222222">A</text>
</g>
<!-- C -->
<g id="node3" class="node">
<title>C</title>
<ellipse fill="#f8f8f8" stroke="#888888" stroke-width="0.8" cx="90" cy="-39.14" rx="18" ry="14.14"/>
<text xml:space="preserve" text-anchor="middle" x="90" y="-34.69" font-family="Helvetica,sans-Serif" font-size="11.00" fill="#222222">C</text>
</g>
<!-- A&#45;&gt;C -->
<g id="edge1" class="edge">
<title>A&#45;&gt;C</title>
<path fill="none" stroke="#f08080" stroke-width="0.9" d="M34.88,-58.47C43.92,-55.24 55.42,-51.14 65.48,-47.54"/>
<polygon fill="#f08080" stroke="#f08080" stroke-width="0.9" points="66.13,-49.91 71.9,-45.25 64.48,-45.3 66.13,-49.91"/>
</g>
<!-- B -->
<g id="node2" class="node">
<title>B</title>
<ellipse fill="#f8f8f8" stroke="#888888" stroke-width="0.8" cx="18" cy="-14.14" rx="18" ry="14.14"/>
<text xml:space="preserve" text-anchor="middle" x="18" y="-9.69" font-family="Helvetica,sans-Serif" font-size="11.00" fill="#222222">B</text>
</g>
<!-- B&#45;&gt;C -->
<g id="edge2" class="edge">
<title>B&#45;&gt;C</title>
<path fill="none" stroke="#f08080" stroke-width="0.9" d="M34.88,-19.82C43.92,-23.04 55.42,-27.15 65.48,-30.74"/>
<polygon fill="#f08080" stroke="#f08080" stroke-width="0.9" points="64.48,-32.99 71.9,-33.03 66.13,-28.37 64.48,-32.99"/>
</g>
<!-- D -->
<g id="node4" class="node">
<title>D</title>
<ellipse fill="#f8f8f8" stroke="#888888" stroke-width="0.8" cx="162" cy="-63.14" rx="18" ry="14.14"/>
<text xml:space="preserve" text-anchor="middle" x="162" y="-58.69" font-family="Helvetica,sans-Serif" font-size="11.00" fill="#222222">D</text>
</g>
<!-- C&#45;&gt;D -->
<g id="edge3" class="edge">
<title>C&#45;&gt;D</title>
<path fill="none" stroke="#f08080" stroke-width="0.9" d="M106.88,-44.59C115.92,-47.69 127.42,-51.63 137.48,-55.08"/>
<polygon fill="#f08080" stroke="#f08080" stroke-width="0.9" points="136.47,-57.32 143.89,-57.28 138.06,-52.69 136.47,-57.32"/>
</g>
<!-- E -->
<g id="node5" class="node">
<title>E</title>
<ellipse fill="#f8f8f8" stroke="#888888" stroke-width="0.8" cx="234" cy="-39.14" rx="18" ry="14.14"/>
<text xml:space="preserve" text-anchor="middle" x="234" y="-34.69" font-family="Helvetica,sans-Serif" font-size="11.00" fill="#222222">E</text>
</g>
<!-- C&#45;&gt;E -->
<g id="edge4" class="edge">
<title>C&#45;&gt;E</title>
<path fill="none" stroke="#f08080" stroke-width="0.9" d="M108.18,-38.74C118.56,-38.51 132.04,-38.25 144,-38.14 160,-37.99 164,-37.99 180,-38.14 188.97,-38.23 198.8,-38.39 207.53,-38.56"/>
<polygon fill="#f08080" stroke="#f08080" stroke-width="0.9" points="207.4,-41.01 214.45,-38.71 207.51,-36.11 207.4,-41.01"/>
</g>
<!-- D&#45;&gt;E -->
<g id="edge5" class="edge">
<title>D&#45;&gt;E</title>
<path fill="none" stroke="#555555" stroke-width="0.9" d="M178.88,-57.7C187.92,-54.6 199.42,-50.66 209.48,-47.2"/>
<polygon fill="#555555" stroke="#555555" stroke-width="0.9" points="210.06,-49.6 215.89,-45.01 208.47,-44.96 210.06,-49.6"/>
</g>
</g>
</svg>
