<?xml version="1.0" encoding="UTF-8" standalone="no"?>
<!DOCTYPE svg PUBLIC "-//W3C//DTD SVG 1.1//EN"
 "http://www.w3.org/Graphics/SVG/1.1/DTD/svg11.dtd">
<!-- Generated by graphviz version 13.1.1 (20250719.2154)
 -->
<!-- Title: truth Pages: 1 -->
<svg width="188pt" height="86pt"
 viewBox="0.00 0.00 188.00 86.00" xmlns="http://www.w3.org/2000/svg" xmlns:xlink="http://www.w3.org/1999/xlink">
<g id="graph0" class="graph" transform="scale(1 1) rotate(0) translate(4 82.28)">
<title>truth</title>
<polygon fill="white" stroke="none" points="-4,4 -4,-82.28 184,-82.28 184,4 -4,4"/>
<!-- A -->
<g id="node1" class="node">
<title>A</title>
<ellipse fill="#f8f8f8" stroke="#888888" stroke-width="0.8" cx="18" cy="-39.14" rx="18" ry="14.14"/>
<text xml:space="preserve" text-anchor="middle" x="18" y="-34.69" font-family="Helvetica,sans-Serif" font-size="11.00" fill="#222222">A</text>
</g>
<!-- B -->
<g id="node2" class="node">
<title>B</title>
<ellipse fill="#f8f8f8" stroke="#888888" stroke-width="0.8" cx="90" cy="-64.14" rx="18" ry="14.14"/>
<text xml:space="preserve" text-anchor="middle" x="90" y="-59.69" font-family="Helvetica,sans-Serif" font-size="11.00" fill="#222222">B</text>
</g>
<!-- A&#45;&gt;B -->
<g id="edge1" class="edge">
<title>A&#45;&gt;B</title>
<path fill="none" stroke="#555555" stroke-width="0.9" d="M34.88,-44.82C46.34,-48.91 61.74,-54.41 73.18,-58.49"/>
</g>
<!-- C -->
<g id="node3" class="node">
<title>C</title>
<ellipse fill="#f8f8f8" stroke="#888888" stroke-width="0.8" cx="90" cy="-14.14" rx="18" ry="14.14"/>
<text xml:space="preserve" text-anchor="middle" x="90" y="-9.69" font-family="Helvetica,sans-Serif" font-size="11.00" fill="#222222">C</text>
</g>
<!-- A&#45;&gt;C -->
<g id="edge2" class="edge">
<title>A&#45;&gt;C</title>
<path fill="none" stroke="#555555" stroke-width="0.9" d="M34.88,-33.47C46.34,-29.38 61.74,-23.88 73.18,-19.79"/>
</g>
<!-- D -->
<g id="node4" class="node">
<title>D</title>
<ellipse fill="#f8f8f8" stroke="#888888" stroke-width="0.8" cx="162" cy="-39.14" rx="18" ry="14.14"/>
<text xml:space="preserve" text-anchor="middle" x="162" y="-34.69" font-family="Helvetica,sans-Serif" font-size="11.00" fill="#222222">D</text>
</g>
<!-- B&#45;&gt;D -->
<g id="edge3" class="edge">
<title>B&#45;&gt;D</title>
<path fill="none" stroke="#f08080" stroke-width="0.9" d="M106.88,-58.47C115.92,-55.24 127.42,-51.14 137.48,-47.54"/>
<polygon fill="#f08080" stroke="#f08080" stroke-width="0.9" points="138.13,-49.91 143.9,-45.25 136.48,-45.3 138.13,-49.91"/>
</g>
<!-- C&#45;&gt;D -->
<g id="edge4" class="edge">
<title>C&#45;&gt;D</title>
<path fill="none" stroke="#f08080" stroke-width="0.9" d="M106.88,-19.82C115.92,-23.04 127.42,-27.15 137.48,-30.74"/>
<polygon fill="#f08080" stroke="#f08080" stroke-width="0.9" points="136.48,-32.99 143.9,-33.03 138.13,-28.37 136.48,-32.99"/>
</g>
</g>
</svg>
