<?xml version="1.0" encoding="UTF-8" standalone="no"?>
<!DOCTYPE svg PUBLIC "-//W3C//DTD SVG 1.1//EN"
 "http://www.w3.org/Graphics/SVG/1.1/DTD/svg11.dtd">
<!-- Generated by graphviz version 13.1.1 (20250719.2154)
 -->
<!-- Title: recovered Pages: 1 -->
<svg width="116pt" height="86pt"
 viewBox="0.00 0.00 116.00 86.00" xmlns="http://www.w3.org/2000/svg" xmlns:xlink="http://www.w3.org/1999/xlink">
<g id="graph0" class="graph" transform="scale(1 1) rotate(0) translate(4 82.28)">
<title>recovered</title>
<polygon fill="white" stroke="none" points="-4,4 -4,-82.28 112,-82.28 112,4 -4,4"/>
<!-- A -->
<g id="node1" class="node">
<title>A</title>
<ellipse fill="#f8f8f8" stroke="#888888" stroke-width="0.8" cx="90" cy="-64.14" rx="18" ry="14.14"/>
<text xml:space="preserve" text-anchor="middle" x="90" y="-59.69" font-family="Helvetica,sans-Serif" font-size="11.00" fill="#222222">A</text>
</g>
<!-- B -->
<g id="node2" class="node">
<title>B</title>
<ellipse fill="#f8f8f8" stroke="#888888" stroke-width="0.8" cx="18" cy="-64.14" rx="18" ry="14.14"/>
<text xml:space="preserve" text-anchor="middle" x="18" y="-59.69" font-family="Helvetica,sans-Serif" font-size="11.00" fill="#222222">B</text>
</g>
<!-- B&#45;&gt;A -->
<g id="edge1" class="edge">
<title>B&#45;&gt;A</title>
<path fill="none" stroke="#555555" stroke-width="0.9" d="M36.3,-64.14C44.53,-64.14 54.52,-64.14 63.58,-64.14"/>
<polygon fill="#555555" stroke="#555555" stroke-width="0.9" points="63.53,-66.59 70.53,-64.14 63.53,-61.69 63.53,-66.59"/>
</g>
<!-- D -->
<g id="node4" class="node">
<title>D</title>
<ellipse fill="#f8f8f8" stroke="#888888" stroke-width="0.8" cx="90" cy="-14.14" rx="18" ry="14.14"/>
<text xml:space="preserve" text-anchor="middle" x="90" y="-9.69" font-family="Helvetica,sans-Serif" font-size="11.00" fill="#222222">D</text>
</g>
<!-- B&#45;&gt;D -->
<g id="edge3" class="edge">
<title>B&#45;&gt;D</title>
<path fill="none" stroke="#f08080" stroke-width="0.9" d="M31.84,-54.97C42.4,-47.43 57.53,-36.62 69.57,-28.02"/>
<polygon fill="#f08080" stroke="#f08080" stroke-width="0.9" points="70.86,-30.11 75.13,-24.05 68.01,-26.12 70.86,-30.11"/>
</g>
<!-- C -->
<g id="node3" class="node">
<title>C</title>
<ellipse fill="#f8f8f8" stroke="#888888" stroke-width="0.8" cx="18" cy="-14.14" rx="18" ry="14.14"/>
<text xml:space="preserve" text-anchor="middle" x="18" y="-9.69" font-family="Helvetica,sans-Serif" font-size="11.00" fill="#222222">C</text>
</g>
<!-- C&#45;&gt;A -->
<g id="edge2" class="edge">
<title>C&#45;&gt;A</title>
<path fill="none" stroke="#555555" stroke-width="0.9" d="M31.84,-23.31C42.4,-30.85 57.53,-41.66 69.57,-50.26"/>
<polygon fill="#555555" stroke="#555555" stroke-width="0.9" points="68.01,-52.16 75.13,-54.24 70.86,-48.18 68.01,-52.16"/>
</g>
<!-- C&#45;&gt;D -->
<g id="edge4" class="edge">
<title>C&#45;&gt;D</title>
<path fill="none" stroke="#f08080" stroke-width="0.9" d="M36.3,-14.14C44.53,-14.14 54.52,-14.14 63.58,-14.14"/>
<polygon fill="#f08080" stroke="#f08080" stroke-width="0.9" points="63.53,-16.59 70.53,-14.14 63.53,-11.69 63.53,-16.59"/>
</g>
</g>
</svg>
